<?xml version="1.0" standalone="no"?>
<!DOCTYPE svg PUBLIC "-//W3C//DTD SVG 20010904//EN"
 "http://www.w3.org/TR/2001/REC-SVG-20010904/DTD/svg10.dtd">
<svg version="1.0" xmlns="http://www.w3.org/2000/svg"
 width="500" height="248.256" viewBox="0 0 1583.000000 787.000000"
 preserveAspectRatio="xMidYMid meet">

<g transform="translate(0.000000,787.000000) scale(0.100000,-0.100000)"
fill="#000000" stroke="none">
<path d="M2230 6398 c-6 -13 -160 -413 -344 -890 l-333 -868 126 0 127 0 96
263 95 262 373 0 373 0 101 -260 102 -260 136 -3 137 -3 -13 33 c-8 18 -167
407 -354 863 -187 457 -346 842 -353 858 l-12 27 -124 0 c-118 0 -124 -1 -133
-22z m150 -253 c7 -22 73 -203 147 -403 75 -200 133 -365 131 -368 -3 -2 -136
-3 -295 -2 l-291 3 110 295 c61 162 124 348 142 412 17 64 34 114 37 110 4 -4
12 -25 19 -47z"/>
<path d="M8320 6202 c0 -121 -3 -260 -6 -310 l-7 -91 -45 40 c-186 164 -487
147 -667 -38 -65 -67 -105 -140 -141 -258 -25 -82 -28 -104 -28 -260 -1 -191
10 -245 81 -386 150 -301 567 -388 774 -161 l49 54 0 -76 0 -76 99 0 c94 0 99
1 105 23 8 30 8 1570 -1 1675 l-6 82 -103 0 -104 0 0 -218z m-192 -467 c140   
-76 202 -222 202 -472 0 -183 -30 -280 -113 -370 -65 -70 -126 -97 -222 -97
-96 -1 -152 23 -221 92 -89 88 -127 206 -127 392 0 250 61 387 206 460 57 29
68 31 142 28 65 -3 90 -10 133 -33z"/>
<path d="M3518 6311 l-108 -66 0 -157 0 -158 -80 0 -80 0 0 -84 c0 -97 -1 -96
96 -96 l64 0 0 -422 c0 -233 5 -454 10 -493 13 -91 47 -139 125 -180 53 -27
66 -29 159 -30 55 0 118 4 139 8 37 8 39 10 33 40 -3 18 -10 61 -16 97 l-11
65 -65 -3 c-38 -2 -78 2 -96 9 -56 23 -58 36 -58 494 l0 415 110 0 110 0 0 90
0 90 -110 0 -110 0 -2 223 -3 223 -107 -65z"/>
<path d="M4202 6308 l-102 -62 0 -158 0 -158 -80 0 -81 0 3 -87 3 -88 77 -3
77 -3 3 -472 c3 -517 3 -514 65 -579 59 -62 198 -91 331 -68 66 11 72 14 67
33 -2 12 -10 55 -16 95 l-12 72 -68 0 c-37 0 -79 4 -93 10 -55 20 -56 32 -56
489 l0 420 108 3 107 3 3 88 3 87 -111 0 -110 0 0 220 c0 121 -3 220 -8 220
-4 0 -53 -28 -110 -62z"/>
<path d="M5200 5949 c-140 -13 -241 -61 -340 -159 -126 -125 -182 -283 -183
-515 -1 -154 17 -244 68 -350 93 -194 270 -302 510 -312 197 -9 333 37 449
151 61 61 125 168 141 237 6 26 6 26 -82 38 -135 17 -139 16 -152 -21 -19 -53
-78 -132 -125 -166 -92 -67 -242 -78 -351 -28 -127 58 -204 177 -229 354 l-6
42 433 0 c239 0 456 3 482 7 l48 6 -6 111 c-11 199 -64 335 -176 447 -125 125
-282 177 -481 158z m233 -213 c81 -39 142 -111 166 -195 11 -36 22 -81 25 -98
l6 -33 -357 0 -356 0 6 51 c12 98 82 209 164 260 60 37 112 49 204 46 69 -2
96 -8 142 -31z"/>
<path d="M6690 5953 c-125 -9 -234 -57 -317 -141 l-53 -52 0 85 0 85 -100 0
-100 0 0 -645 0 -645 109 0 109 0 4 423 c4 401 5 425 26 487 28 84 65 128 144
170 54 29 75 35 149 38 72 4 93 1 137 -18 59 -26 112 -80 132 -137 10 -29 14
-146 17 -500 l4 -463 110 0 110 0 -3 498 c-4 489 -5 498 -27 560 -29 80 -73
138 -135 180 -77 51 -207 82 -316 75z"/>
<path d="M9325 5949 c-199 -16 -339 -83 -415 -200 -45 -70 -80 -177 -61 -189
20 -12 193 -32 201 -23 4 4 13 24 19 44 24 75 68 129 129 157 53 25 67 27 187
27 122 0 133 -2 181 -27 92 -48 124 -106 124 -225 l0 -61 -87 -21 c-49 -11
-142 -27 -208 -36 -369 -49 -483 -102 -561 -261 -26 -53 -29 -69 -29 -159 0
-89 3 -106 28 -156 66 -135 208 -209 402 -209 151 0 282 43 411 135 l62 45 7
-33 c4 -17 14 -51 22 -74 l16 -43 114 0 c106 0 115 1 108 18 -43 97 -48 128
-56 347 -4 121 -8 315 -8 431 -1 226 -10 281 -56 355 -76 120 -272 179 -530
158z m362 -781 c-6 -131 -17 -169 -66 -235 -72 -95 -183 -146 -321 -147 -101
-1 -161 18 -209 66 -74 74 -76 179 -5 258 44 49 82 61 299 99 94 17 197 39
230 50 33 10 64 19 69 20 5 1 6 -49 3 -111z"/>
<path d="M10780 5949 c-117 -13 -212 -61 -289 -144 l-41 -45 0 39 c0 21 -3 59
-6 85 l-7 46 -93 0 -94 0 0 -645 0 -645 110 0 109 0 3 433 c4 488 5 497 78
580 57 65 133 99 229 105 42 2 94 -1 116 -7 59 -16 117 -63 145 -118 l25 -48
3 -472 3 -473 109 0 110 0 0 483 c0 513 -2 544 -50 637 -69 135 -256 211 -460
189z"/>
<path d="M12068 5948 c-268 -27 -446 -201 -498 -488 -18 -95 -15 -300 5 -390
64 -289 274 -460 565 -460 248 0 445 146 514 379 29 98 30 96 -86 109 -110 13
-118 11 -118 -36 0 -40 -57 -149 -98 -189 -47 -45 -144 -83 -213 -83 -102 0
-213 55 -269 132 -79 108 -110 326 -76 520 26 145 94 246 201 298 57 28 177
38 241 21 84 -23 149 -89 189 -193 20 -55 17 -54 144 -36 l83 11 -6 41 c-10
62 -62 160 -116 219 -104 114 -267 165 -462 145z"/>
<path d="M13310 5948 c-243 -23 -430 -188 -497 -438 -14 -51 -18 -104 -18
-245 0 -169 2 -185 27 -255 38 -107 74 -167 142 -236 137 -137 369 -196 591
-149 183 39 330 167 389 341 9 26 16 51 16 54 0 7 -155 30 -201 30 -19 0 -28
-10 -47 -53 -32 -75 -90 -138 -158 -172 -53 -26 -69 -30 -154 -30 -82 0 -103
4 -152 27 -129 60 -227 216 -228 361 l0 37 438 0 c240 0 454 3 476 7 l39 6 -6
116 c-10 203 -57 321 -177 442 -128 130 -273 177 -480 157z m230 -207 c56 -29
126 -95 151 -143 17 -34 48 -145 49 -175 0 -10 -78 -13 -355 -13 l-355 0 0 24
c0 45 40 151 75 198 39 53 100 98 165 122 67 24 210 17 270 -13z"/>
<path d="M2108 4200 c-52 -16 -98 -52 -126 -98 l-27 -47 -3 -413 -3 -414 58 9
c32 4 104 7 161 7 l102 -1 0 323 0 324 1600 0 1600 0 0 -1010 0 -1010 -903 0
-903 0 -153 -160 -153 -160 1131 0 c1248 0 1170 -4 1239 63 64 62 62 13 62
1261 0 777 -3 1144 -11 1171 -17 63 -56 112 -112 140 l-51 25 -1740 -1 c-958
0 -1753 -4 -1768 -9z"/>
<path d="M5860 3870 l0 -110 289 0 288 0 7 -46 c3 -26 6 -377 6 -780 l0 -734
115 0 115 0 0 780 0 780 295 0 295 0 0 110 0 110 -705 0 -705 0 0 -110z"/>
<path d="M10920 3090 l0 -890 110 0 110 0 0 253 0 253 74 73 75 74 123 -189
c68 -104 164 -251 213 -326 l89 -138 133 0 c73 0 133 3 133 6 0 3 -115 176
-255 385 -140 208 -259 388 -265 399 -10 18 16 46 232 260 l243 239 -141 1
-141 0 -254 -257 -254 -258 -3 503 -2 502 -110 0 -110 0 0 -890z"/>
<path d="M7915 3510 c-67 -10 -126 -49 -180 -122 l-50 -67 -3 62 c-4 113 1
107 -107 107 l-95 0 0 -645 0 -645 110 0 110 0 0 385 c0 424 7 494 58 590 55
101 180 138 294 87 26 -11 50 -17 53 -12 3 5 21 51 40 103 l34 95 -57 25 c-67
30 -150 45 -207 37z"/>
<path d="M8760 3510 c-204 -17 -343 -86 -421 -209 -31 -48 -75 -169 -65 -178
6 -6 165 -32 197 -33 10 0 21 19 32 54 23 71 83 139 145 163 67 26 268 26 331
0 105 -43 138 -93 143 -217 l3 -75 -85 -21 c-47 -12 -170 -34 -275 -49 -193
-27 -272 -47 -342 -86 -64 -37 -130 -108 -160 -173 -24 -52 -28 -74 -28 -151
0 -77 4 -99 27 -147 71 -152 227 -228 446 -216 148 9 277 58 394 150 27 21 39
26 42 16 2 -7 12 -41 21 -75 l18 -63 115 0 c104 0 114 2 109 18 -4 9 -16 44
-28 77 -22 57 -23 79 -29 495 -4 244 -12 448 -17 465 -49 147 -173 235 -350
250 -37 3 -84 7 -103 9 -19 1 -73 0 -120 -4z m358 -810 c-5 -119 -30 -181 -99
-245 -145 -136 -401 -152 -506 -32 -36 41 -48 87 -40 154 5 51 29 88 77 120
42 29 74 38 250 68 80 14 184 36 230 48 101 26 94 35 88 -113z"/>
<path d="M10128 3509 c-81 -9 -176 -39 -240 -77 -184 -108 -271 -301 -271
-602 0 -116 5 -161 21 -223 34 -124 76 -202 151 -277 107 -107 241 -159 408
-160 249 0 448 146 517 379 29 98 30 96 -86 109 -55 7 -103 11 -105 9 -2 -2
-10 -30 -18 -61 -31 -120 -96 -196 -201 -236 -115 -43 -268 -8 -348 80 -84 93
-111 189 -111 395 0 127 3 161 22 221 55 174 171 264 339 264 117 0 199 -48
252 -148 18 -33 32 -67 32 -76 0 -26 24 -29 126 -15 l96 13 -7 35 c-10 54 -44
130 -83 184 -102 142 -278 208 -494 186z"/>
<path d="M12605 3509 c-246 -24 -443 -203 -499 -454 -35 -158 -30 -349 11
-480 47 -149 158 -283 285 -343 184 -88 467 -79 623 20 57 36 137 118 169 173
25 42 70 155 64 160 -5 4 -170 25 -198 25 -22 0 -31 -9 -55 -60 -36 -76 -95
-136 -165 -169 -47 -22 -68 -26 -145 -26 -76 0 -99 5 -147 27 -116 54 -194
158 -224 297 -7 36 -14 74 -14 84 0 16 27 17 434 17 238 0 455 3 481 7 l48 6
-7 106 c-12 207 -64 339 -175 451 -128 127 -283 178 -486 159z m209 -199 c110
-42 195 -153 214 -282 l9 -58 -357 0 -357 0 8 48 c12 69 24 104 51 148 27 42
92 104 130 125 80 43 214 51 302 19z"/>
<path d="M13965 3510 c-67 -10 -126 -49 -180 -122 l-50 -67 -3 62 c-4 113 1
107 -107 107 l-95 0 0 -645 0 -645 110 0 110 0 0 385 c0 424 7 494 58 590 55
101 180 138 294 87 26 -11 50 -17 53 -12 3 5 21 51 40 103 l34 95 -57 25 c-67
30 -150 45 -207 37z"/>
<path d="M2048 3024 c-87 -21 -157 -60 -220 -125 -89 -92 -128 -187 -128 -315
0 -224 156 -408 377 -446 193 -33 401 78 485 259 27 57 33 83 36 160 7 154
-40 269 -151 369 -63 56 -108 80 -189 99 -77 18 -135 18 -210 -1z"/>
<path d="M3609 2744 c-25 -10 -161 -145 -443 -439 l-408 -425 -36 16 c-181 80
-315 111 -512 121 -299 15 -633 -91 -862 -272 -91 -71 -100 -91 -166 -367 -32
-137 -56 -250 -54 -253 3 -3 361 -5 796 -5 l791 1 237 277 c131 152 398 445
593 651 330 348 357 378 371 428 22 76 6 146 -46 206 -22 24 -55 52 -74 61
-43 20 -138 20 -187 0z"/>
</g>
</svg>
